<svg xmlns="http://www.w3.org/2000/svg" width="168" height="38" viewBox="0 0 168 38" fill="none">
  <path fill-rule="evenodd" clip-rule="evenodd" d="M32.279 0.0942841H23.6477V2.31868C23.6477 2.72818 23.999 3.06015 24.4324 3.06015H29.925V8.2504C29.925 8.65991 30.2763 8.99187 30.7097 8.99187H33.0636V3.06015V0.83575C33.0636 0.42625 32.7123 0.0942841 32.279 0.0942841Z" fill="#008208"/>
  <path d="M30.708 33.0907C30.2746 33.0907 29.9233 32.7588 29.9233 32.3493L29.9233 10.8468L32.2773 10.8468C32.7107 10.8468 33.062 11.1787 33.062 11.5882L33.062 33.0907L30.708 33.0907Z" fill="#00154F"/>
  <path d="M27.9633 11.7728C27.9633 13.718 26.2946 15.2948 24.2362 15.2948C22.1777 15.2948 20.509 13.718 20.509 11.7728C20.509 9.82772 22.1777 8.25089 24.2362 8.25089C26.2946 8.25089 27.9633 9.82772 27.9633 11.7728Z" fill="#00154F"/>
  <path d="M42.0856 27.7145C42.0856 29.6596 40.4169 31.2365 38.3585 31.2365C36.3 31.2365 34.6313 29.6596 34.6313 27.7145C34.6313 25.7694 36.3 24.1925 38.3585 24.1925C40.4169 24.1925 42.0856 25.7694 42.0856 27.7145Z" fill="#00154F"/>
  <path fill-rule="evenodd" clip-rule="evenodd" d="M30.7725 21.614L30.7726 21.614L30.7727 21.6141L30.7731 21.6146C31.0669 21.9042 31.3929 22.2257 31.7476 22.572C31.8238 22.6463 31.9496 22.6472 32.027 22.5741L34.7936 19.9598C36.0339 18.76 37.5623 17.3259 39.2403 15.9234C41.0803 14.3855 43.0101 12.9622 44.8514 11.9411C46.7625 10.8813 48.1887 10.4751 49.1119 10.4751C54.7455 10.4751 59.3125 14.7906 59.3125 20.1141C59.3125 25.4376 54.7455 29.7532 49.1119 29.7532C48.194 29.7532 46.7706 29.3467 44.859 28.2811C43.5425 27.5473 42.1806 26.6066 40.8384 25.5649C40.7098 25.4651 40.5153 25.5511 40.5153 25.7084V29.9177C40.5153 29.9773 40.5456 30.0333 40.5968 30.068C43.4649 32.0125 46.4715 33.4605 49.1119 33.4605C56.9123 33.4605 63.2358 27.4851 63.2358 20.1141C63.2358 12.7431 56.9123 6.76773 49.1119 6.76773C43.3853 6.76773 35.936 13.5436 31.9141 17.4399C31.4911 17.8497 31.1059 18.2277 30.7647 18.5626L30.7643 18.563C30.1361 19.1795 29.6568 19.6499 29.3638 19.904C29.2607 19.9935 29.2606 20.1693 29.3635 20.2589C29.6578 20.5149 30.1401 20.9904 30.7725 21.614Z" fill="#00154F"/>
  <path fill-rule="evenodd" clip-rule="evenodd" d="M14.6242 6.76773C16.7939 6.76773 19.211 7.74556 21.5953 9.17319C21.6519 9.20704 21.6861 9.26606 21.6861 9.32932V13.3814C21.6861 13.5349 21.4999 13.6221 21.3697 13.5304C20.5317 12.9396 19.6956 12.4034 18.8771 11.9471C16.9655 10.8816 15.5421 10.4751 14.6242 10.4751C8.99052 10.4751 4.42355 14.7906 4.42355 20.1141C4.42355 25.4376 8.99052 29.7532 14.6242 29.7532C15.5473 29.7532 16.9736 29.3469 18.8847 28.2871C20.7259 27.266 22.6558 25.8427 24.4958 24.3048C26.1631 22.9112 27.6828 21.4864 28.9188 20.2913C28.9235 20.2867 28.9311 20.2868 28.9358 20.2913C28.9404 20.2958 28.9481 20.2959 28.9528 20.2914L31.7261 17.6708C31.8035 17.5976 31.9294 17.5985 32.0055 17.6729C32.3529 18.0121 32.6726 18.3274 32.9612 18.6119L32.9629 18.6137L32.9634 18.6141L32.9634 18.6142C33.5959 19.2377 34.0782 19.7133 34.3725 19.9693C34.4755 20.0589 34.4754 20.2347 34.3723 20.3242C34.0793 20.5783 33.5999 21.0487 32.9717 21.6653L32.9714 21.6656C32.6302 22.0005 32.245 22.3785 31.8219 22.7884C27.8 26.6846 20.3507 33.4605 14.6242 33.4605C6.82373 33.4605 0.500244 27.4851 0.500244 20.1141C0.500244 12.7431 6.82373 6.76773 14.6242 6.76773ZM24.1625 15.6666C24.1616 15.6658 24.1604 15.6653 24.1592 15.6653C24.1549 15.6653 24.1529 15.6703 24.1561 15.673C24.186 15.6977 24.2158 15.7224 24.2456 15.7471L24.1625 15.6666Z" fill="#00154F"/>
  <path d="M35.4191 19.9295C35.4191 21.8746 33.7504 23.4514 31.692 23.4514C29.6335 23.4514 27.9648 21.8746 27.9648 19.9295C27.9648 17.9843 29.6335 16.4075 31.692 16.4075C33.7504 16.4075 35.4191 17.9843 35.4191 19.9295Z" fill="#00154F"/>
  <path d="M80.5715 22.5513C80.2044 21.9794 79.7675 21.3654 79.2606 20.7094C78.7712 20.0365 78.2294 19.3721 77.6351 18.716C77.0584 18.0432 76.4554 17.404 75.8262 16.7984C75.1969 16.176 74.5677 15.6293 73.9385 15.1584V22.5513H69.8486V5.06561H73.9385V11.6764C75.0047 10.5998 76.0709 9.48118 77.137 8.32052C78.2207 7.14303 79.2257 6.05806 80.152 5.06561H85.0022C83.7612 6.47859 82.5116 7.84111 81.2531 9.15317C80.0122 10.4652 78.7013 11.7857 77.3205 13.1146C78.7712 14.2752 80.1695 15.6546 81.5153 17.2526C82.8786 18.8506 84.1807 20.6168 85.4217 22.5513H80.5715Z" fill="#00154F"/>
  <path d="M88.6431 22.5513V3.57693L92.5495 2.97137V9.32979C92.8116 9.24569 93.1437 9.16999 93.5457 9.10271C93.9652 9.0186 94.3672 8.97655 94.7517 8.97655C95.8703 8.97655 96.7967 9.12794 97.5307 9.43072C98.2823 9.71668 98.8766 10.1288 99.3135 10.6671C99.7679 11.2054 100.083 11.8446 100.257 12.5847C100.45 13.3248 100.546 14.1491 100.546 15.0574V22.5513H96.6394V15.5116C96.6394 14.3005 96.4733 13.4426 96.1412 12.9379C95.8266 12.4333 95.2324 12.181 94.3585 12.181C94.0089 12.181 93.6768 12.2146 93.3622 12.2819C93.0651 12.3324 92.7942 12.3913 92.5495 12.4585V22.5513H88.6431Z" fill="#00154F"/>
  <path d="M107.734 22.5513H103.828V9.27933H107.734V22.5513ZM108.101 5.44409C108.101 6.13376 107.865 6.68045 107.393 7.08416C106.939 7.47105 106.397 7.66449 105.768 7.66449C105.139 7.66449 104.588 7.47105 104.116 7.08416C103.662 6.68045 103.435 6.13376 103.435 5.44409C103.435 4.75442 103.662 4.21614 104.116 3.82925C104.588 3.42554 105.139 3.22369 105.768 3.22369C106.397 3.22369 106.939 3.42554 107.393 3.82925C107.865 4.21614 108.101 4.75442 108.101 5.44409Z" fill="#008208"/>
  <path d="M110.559 15.9153C110.559 14.9565 110.716 14.0566 111.031 13.2155C111.363 12.3576 111.835 11.6175 112.447 10.9951C113.058 10.3559 113.801 9.85125 114.675 9.48118C115.549 9.11112 116.545 8.92608 117.664 8.92608C118.398 8.92608 119.071 8.99337 119.683 9.12794C120.294 9.24569 120.889 9.42231 121.465 9.65781L120.653 12.6604C120.286 12.5258 119.884 12.4081 119.447 12.3072C119.01 12.2062 118.52 12.1558 117.979 12.1558C116.825 12.1558 115.96 12.5006 115.383 13.1903C114.824 13.8799 114.544 14.7883 114.544 15.9153C114.544 17.1096 114.806 18.0348 115.331 18.6908C115.872 19.3468 116.807 19.6749 118.136 19.6749C118.608 19.6749 119.115 19.6328 119.656 19.5487C120.198 19.4646 120.696 19.33 121.151 19.145L121.701 22.2233C121.247 22.4083 120.679 22.5681 119.997 22.7027C119.316 22.8372 118.564 22.9045 117.743 22.9045C116.484 22.9045 115.401 22.7279 114.492 22.3747C113.583 22.0046 112.831 21.5084 112.237 20.886C111.66 20.2636 111.232 19.5319 110.952 18.6908C110.69 17.8329 110.559 16.9078 110.559 15.9153Z" fill="#00154F"/>
  <path d="M125.101 22.5513V3.57693L129.008 2.97137V9.32979C129.27 9.24569 129.602 9.16999 130.004 9.10271C130.424 9.0186 130.826 8.97655 131.21 8.97655C132.329 8.97655 133.255 9.12794 133.989 9.43072C134.741 9.71668 135.335 10.1288 135.772 10.6671C136.226 11.2054 136.541 11.8446 136.716 12.5847C136.908 13.3248 137.004 14.1491 137.004 15.0574V22.5513H133.098V15.5116C133.098 14.3005 132.932 13.4426 132.6 12.9379C132.285 12.4333 131.691 12.181 130.817 12.181C130.467 12.181 130.135 12.2146 129.821 12.2819C129.523 12.3324 129.252 12.3913 129.008 12.4585V22.5513H125.101Z" fill="#00154F"/>
  <path d="M146.446 19.9272C146.83 19.9272 147.197 19.9188 147.547 19.9019C147.896 19.8851 148.176 19.8599 148.386 19.8262V16.975C148.228 16.9414 147.992 16.9078 147.678 16.8741C147.363 16.8405 147.075 16.8237 146.813 16.8237C146.446 16.8237 146.096 16.8489 145.764 16.8993C145.449 16.933 145.17 17.0087 144.925 17.1264C144.68 17.2442 144.488 17.404 144.348 17.6058C144.208 17.8077 144.138 18.06 144.138 18.3628C144.138 18.9515 144.339 19.3637 144.741 19.5992C145.161 19.8178 145.729 19.9272 146.446 19.9272ZM146.131 8.92608C147.284 8.92608 148.246 9.05224 149.015 9.30456C149.784 9.55688 150.396 9.91854 150.85 10.3895C151.322 10.8605 151.654 11.4324 151.846 12.1053C152.039 12.7781 152.135 13.5267 152.135 14.3509V22.1728C151.575 22.2906 150.798 22.4251 149.801 22.5765C148.805 22.7447 147.599 22.8288 146.183 22.8288C145.292 22.8288 144.479 22.7531 143.745 22.6017C143.029 22.4504 142.408 22.2064 141.884 21.87C141.359 21.5168 140.957 21.0626 140.678 20.5075C140.398 19.9524 140.258 19.2711 140.258 18.4637C140.258 17.6899 140.416 17.0339 140.73 16.4956C141.062 15.9574 141.499 15.5284 142.041 15.2088C142.583 14.8892 143.203 14.6621 143.902 14.5276C144.602 14.3762 145.327 14.3005 146.078 14.3005C146.585 14.3005 147.031 14.3257 147.416 14.3762C147.818 14.4098 148.141 14.4603 148.386 14.5276V14.1743C148.386 13.5351 148.185 13.0221 147.783 12.6352C147.381 12.2483 146.681 12.0548 145.685 12.0548C145.021 12.0548 144.366 12.1053 143.719 12.2062C143.072 12.2903 142.513 12.4165 142.041 12.5847L141.543 9.55688C141.77 9.48959 142.05 9.42231 142.382 9.35503C142.731 9.27092 143.107 9.20363 143.509 9.15317C143.911 9.08589 144.331 9.03542 144.768 9.00178C145.222 8.95132 145.676 8.92608 146.131 8.92608Z" fill="#00154F"/>
  <path d="M158.664 15.8144C158.664 16.975 158.935 17.9086 159.477 18.6151C160.019 19.3216 160.823 19.6749 161.889 19.6749C162.239 19.6749 162.562 19.6664 162.859 19.6496C163.156 19.616 163.401 19.5823 163.593 19.5487V12.7109C163.349 12.5595 163.025 12.4333 162.623 12.3324C162.239 12.2315 161.845 12.181 161.443 12.181C159.591 12.181 158.664 13.3921 158.664 15.8144ZM167.5 22.1223C167.15 22.2233 166.748 22.3242 166.294 22.4251C165.839 22.5092 165.359 22.5849 164.852 22.6522C164.362 22.7195 163.855 22.77 163.331 22.8036C162.824 22.8541 162.335 22.8793 161.863 22.8793C160.727 22.8793 159.713 22.7195 158.822 22.3999C157.93 22.0803 157.179 21.6261 156.567 21.0374C155.955 20.4318 155.483 19.7085 155.151 18.8674C154.837 18.0095 154.679 17.0507 154.679 15.991C154.679 14.9144 154.819 13.9472 155.099 13.0893C155.379 12.2146 155.781 11.4745 156.305 10.8689C156.829 10.2634 157.467 9.80079 158.219 9.48118C158.988 9.16158 159.862 9.00178 160.84 9.00178C161.382 9.00178 161.863 9.05224 162.282 9.15317C162.719 9.2541 163.156 9.39708 163.593 9.58211V3.57693L167.5 2.97137V22.1223Z" fill="#00154F"/>
  <path d="M163.757 34.3769C164.189 34.3769 164.504 34.3298 164.701 34.2357C164.899 34.133 164.998 33.9619 164.998 33.7224C164.998 33.4999 164.89 33.316 164.674 33.1705C164.468 33.0251 164.121 32.8668 163.636 32.6957C163.339 32.593 163.064 32.4861 162.813 32.3749C162.57 32.2551 162.358 32.1182 162.179 31.9642C161.999 31.8102 161.855 31.6263 161.747 31.4124C161.648 31.1899 161.598 30.9204 161.598 30.6039C161.598 29.9879 161.837 29.5045 162.313 29.1537C162.79 28.7944 163.438 28.6147 164.256 28.6147C164.67 28.6147 165.066 28.6532 165.444 28.7302C165.821 28.7987 166.105 28.8671 166.293 28.9356L165.997 30.1932C165.817 30.1162 165.587 30.0478 165.309 29.9879C165.03 29.9194 164.706 29.8852 164.337 29.8852C164.004 29.8852 163.735 29.9408 163.528 30.0521C163.321 30.1547 163.217 30.3173 163.217 30.5397C163.217 30.6509 163.235 30.7493 163.271 30.8349C163.316 30.9204 163.388 31.0017 163.487 31.0787C163.586 31.1472 163.717 31.2199 163.878 31.2969C164.04 31.3653 164.238 31.438 164.472 31.515C164.859 31.6519 165.187 31.7888 165.457 31.9257C165.727 32.054 165.947 32.2038 166.118 32.3749C166.298 32.5374 166.428 32.7256 166.509 32.9395C166.59 33.1534 166.631 33.4101 166.631 33.7095C166.631 34.3512 166.379 34.8388 165.875 35.1725C165.381 35.4976 164.67 35.6602 163.744 35.6602C163.123 35.6602 162.624 35.6088 162.246 35.5062C161.868 35.4121 161.603 35.3351 161.45 35.2752L161.733 33.979C161.976 34.0731 162.264 34.163 162.597 34.2485C162.939 34.3341 163.325 34.3769 163.757 34.3769Z" fill="#008208"/>
  <path d="M152.542 32.1695C152.542 31.5792 152.632 31.0616 152.812 30.6167C153 30.1718 153.248 29.8039 153.554 29.5131C153.859 29.2136 154.21 28.9912 154.606 28.8457C155.002 28.6917 155.407 28.6147 155.82 28.6147C156.792 28.6147 157.547 28.9013 158.087 29.4746C158.636 30.0478 158.91 30.9033 158.91 32.0412C158.91 32.1268 158.905 32.2251 158.896 32.3364C158.896 32.439 158.892 32.5331 158.883 32.6187H154.228C154.273 33.1577 154.471 33.5769 154.822 33.8764C155.182 34.1672 155.699 34.3127 156.373 34.3127C156.769 34.3127 157.129 34.2785 157.453 34.21C157.786 34.1416 158.046 34.0689 158.235 33.9919L158.451 35.2623C158.361 35.3051 158.235 35.3522 158.073 35.4035C157.92 35.4463 157.741 35.4848 157.534 35.519C157.336 35.5618 157.12 35.596 156.886 35.6217C156.652 35.6473 156.414 35.6602 156.171 35.6602C155.55 35.6602 155.011 35.5746 154.552 35.4035C154.093 35.2238 153.716 34.98 153.419 34.672C153.122 34.3555 152.902 33.9876 152.758 33.5684C152.614 33.1406 152.542 32.6743 152.542 32.1695ZM157.277 31.4765C157.277 31.2627 157.246 31.0616 157.183 30.8734C157.12 30.6766 157.026 30.5098 156.9 30.3729C156.783 30.2274 156.634 30.1162 156.454 30.0392C156.283 29.9537 156.077 29.9109 155.834 29.9109C155.582 29.9109 155.362 29.9579 155.173 30.0521C154.984 30.1376 154.822 30.2531 154.687 30.3986C154.561 30.544 154.462 30.7108 154.39 30.899C154.318 31.0873 154.269 31.2798 154.242 31.4765H157.277Z" fill="#008208"/>
  <path d="M149.501 35.4931H147.868V28.7813H149.501V35.4931ZM149.676 26.8178C149.676 27.1087 149.577 27.3397 149.379 27.5108C149.182 27.6819 148.948 27.7675 148.678 27.7675C148.399 27.7675 148.161 27.6819 147.963 27.5108C147.765 27.3397 147.666 27.1087 147.666 26.8178C147.666 26.5184 147.765 26.2831 147.963 26.112C148.161 25.9409 148.399 25.8554 148.678 25.8554C148.948 25.8554 149.182 25.9409 149.379 26.112C149.577 26.2831 149.676 26.5184 149.676 26.8178Z" fill="#008208"/>
  <path d="M139.882 31.9639C139.882 32.6227 140.03 33.1061 140.327 33.4141C140.633 33.7135 141.024 33.8632 141.501 33.8632C141.761 33.8632 142.004 33.829 142.229 33.7606C142.463 33.6921 142.652 33.6109 142.796 33.5167V30.0389C142.679 30.0133 142.535 29.9919 142.364 29.9748C142.193 29.9491 141.977 29.9363 141.716 29.9363C141.123 29.9363 140.669 30.1245 140.354 30.5009C140.039 30.8688 139.882 31.3565 139.882 31.9639ZM144.428 34.8129C144.428 35.8823 144.141 36.6652 143.565 37.1614C142.998 37.6576 142.126 37.9057 140.947 37.9057C140.516 37.9057 140.093 37.8715 139.679 37.803C139.274 37.7346 138.906 37.6448 138.573 37.5335L138.87 36.2117C139.149 36.3229 139.463 36.4128 139.814 36.4812C140.174 36.5497 140.561 36.5839 140.974 36.5839C141.631 36.5839 142.099 36.4556 142.378 36.1989C142.656 35.9422 142.796 35.5615 142.796 35.0567V34.8001C142.634 34.8771 142.418 34.9541 142.148 35.0311C141.887 35.1081 141.586 35.1466 141.244 35.1466C140.795 35.1466 140.381 35.0781 140.003 34.9412C139.634 34.8043 139.315 34.6033 139.045 34.3381C138.784 34.0729 138.577 33.7435 138.424 33.3499C138.281 32.9478 138.209 32.4858 138.209 31.9639C138.209 31.4763 138.285 31.0271 138.438 30.6164C138.6 30.2058 138.829 29.855 139.126 29.5641C139.432 29.2732 139.801 29.0465 140.232 28.884C140.664 28.7214 141.154 28.6401 141.703 28.6401C142.234 28.6401 142.737 28.6786 143.214 28.7556C143.691 28.8326 144.096 28.9139 144.428 28.9995V34.8129Z" fill="#008208"/>
  <path d="M135.569 32.131C135.569 32.6615 135.488 33.1449 135.326 33.5812C135.164 34.0175 134.935 34.3897 134.638 34.6977C134.341 35.0057 133.981 35.2452 133.558 35.4163C133.145 35.5875 132.686 35.673 132.182 35.673C131.679 35.673 131.22 35.5875 130.806 35.4163C130.392 35.2452 130.037 35.0057 129.74 34.6977C129.443 34.3897 129.21 34.0175 129.039 33.5812C128.877 33.1449 128.796 32.6615 128.796 32.131C128.796 31.6006 128.877 31.1215 129.039 30.6937C129.21 30.2574 129.443 29.8852 129.74 29.5772C130.046 29.2692 130.406 29.034 130.82 28.8714C131.233 28.7003 131.688 28.6147 132.182 28.6147C132.677 28.6147 133.131 28.7003 133.545 28.8714C133.968 29.034 134.327 29.2692 134.624 29.5772C134.921 29.8852 135.15 30.2574 135.312 30.6937C135.483 31.1215 135.569 31.6006 135.569 32.131ZM133.896 32.131C133.896 31.4637 133.743 30.9375 133.437 30.5526C133.14 30.159 132.722 29.9622 132.182 29.9622C131.643 29.9622 131.22 30.159 130.914 30.5526C130.617 30.9375 130.469 31.4637 130.469 32.131C130.469 32.8069 130.617 33.3416 130.914 33.7352C131.22 34.1287 131.643 34.3255 132.182 34.3255C132.722 34.3255 133.14 34.1287 133.437 33.7352C133.743 33.3416 133.896 32.8069 133.896 32.131Z" fill="#008208"/>
  <path d="M126.289 35.6215C125.803 35.6129 125.398 35.5616 125.075 35.4675C124.76 35.3734 124.508 35.2408 124.319 35.0696C124.13 34.89 123.995 34.6718 123.914 34.4152C123.842 34.1499 123.806 33.8505 123.806 33.5168V25.7912L125.439 25.5346V33.2217C125.439 33.4099 125.452 33.5682 125.479 33.6965C125.515 33.8248 125.574 33.936 125.655 34.0302C125.736 34.1157 125.844 34.1842 125.978 34.2355C126.122 34.2783 126.302 34.3125 126.518 34.3382L126.289 35.6215Z" fill="#008208"/>
  <path d="M120.802 32.131C120.802 32.6615 120.721 33.1449 120.559 33.5812C120.397 34.0175 120.168 34.3897 119.871 34.6977C119.574 35.0057 119.214 35.2452 118.791 35.4163C118.378 35.5875 117.919 35.673 117.415 35.673C116.912 35.673 116.453 35.5875 116.039 35.4163C115.625 35.2452 115.27 35.0057 114.973 34.6977C114.676 34.3897 114.443 34.0175 114.272 33.5812C114.11 33.1449 114.029 32.6615 114.029 32.131C114.029 31.6006 114.11 31.1215 114.272 30.6937C114.443 30.2574 114.676 29.8852 114.973 29.5772C115.279 29.2692 115.639 29.034 116.053 28.8714C116.466 28.7003 116.921 28.6147 117.415 28.6147C117.91 28.6147 118.364 28.7003 118.778 28.8714C119.201 29.034 119.56 29.2692 119.857 29.5772C120.154 29.8852 120.383 30.2574 120.545 30.6937C120.716 31.1215 120.802 31.6006 120.802 32.131ZM119.129 32.131C119.129 31.4637 118.976 30.9375 118.67 30.5526C118.373 30.159 117.955 29.9622 117.415 29.9622C116.876 29.9622 116.453 30.159 116.147 30.5526C115.85 30.9375 115.702 31.4637 115.702 32.131C115.702 32.8069 115.85 33.3416 116.147 33.7352C116.453 34.1287 116.876 34.3255 117.415 34.3255C117.955 34.3255 118.373 34.1287 118.67 33.7352C118.976 33.3416 119.129 32.8069 119.129 32.131Z" fill="#008208"/>
  <path d="M105.179 28.9995C105.494 28.9139 105.903 28.8326 106.407 28.7556C106.911 28.6786 107.468 28.6401 108.08 28.6401C108.655 28.6401 109.137 28.7171 109.523 28.8711C109.91 29.0166 110.216 29.2262 110.441 29.4999C110.675 29.7652 110.837 30.0903 110.927 30.4753C111.026 30.8517 111.075 31.2667 111.075 31.7201V35.4931H109.442V31.9639C109.442 31.6046 109.415 31.3009 109.362 31.0528C109.317 30.7961 109.236 30.5908 109.119 30.4368C109.011 30.2742 108.858 30.1587 108.66 30.0903C108.471 30.0133 108.237 29.9748 107.958 29.9748C107.752 29.9748 107.536 29.9876 107.311 30.0133C107.086 30.0389 106.92 30.0603 106.812 30.0774V35.4931H105.179V28.9995Z" fill="#008208"/>
  <path d="M95.9771 35.4931V25.7912L97.6096 25.5346V28.8584C97.7894 28.7985 97.9963 28.7471 98.2302 28.7044C98.473 28.6616 98.7114 28.6402 98.9452 28.6402C99.5119 28.6402 99.9796 28.7172 100.348 28.8712C100.726 29.0166 101.027 29.2263 101.252 29.5C101.477 29.7653 101.635 30.0861 101.725 30.4625C101.823 30.839 101.873 31.2582 101.873 31.7202V35.4931H100.24V31.964C100.24 31.6047 100.213 31.301 100.16 31.0529C100.115 30.7962 100.034 30.5909 99.9167 30.4369C99.8087 30.2743 99.6603 30.1588 99.4714 30.0904C99.2825 30.0134 99.0487 29.9749 98.7698 29.9749C98.554 29.9749 98.3336 29.9962 98.1088 30.039C97.8839 30.0818 97.7175 30.1203 97.6096 30.1545V35.4931H95.9771Z" fill="#008208"/>
  <path d="M87.8719 32.1439C87.8719 31.6477 87.9529 31.1857 88.1148 30.7579C88.2767 30.3216 88.5061 29.9451 88.8029 29.6286C89.1087 29.312 89.4775 29.0639 89.9092 28.8842C90.3409 28.7046 90.8266 28.6147 91.3663 28.6147C92.0319 28.6147 92.6615 28.7302 93.2552 28.9612L92.9044 30.2317C92.7155 30.1547 92.4996 30.0906 92.2568 30.0392C92.0229 29.9879 91.7711 29.9622 91.5012 29.9622C90.8626 29.9622 90.3769 30.1547 90.0441 30.5397C89.7113 30.9162 89.5449 31.4509 89.5449 32.1439C89.5449 32.8112 89.7023 33.3416 90.0171 33.7352C90.332 34.1202 90.8626 34.3127 91.6092 34.3127C91.888 34.3127 92.1623 34.287 92.4322 34.2357C92.702 34.1844 92.9359 34.1202 93.1337 34.0432L93.3631 35.3265C93.1832 35.4121 92.9089 35.4891 92.5401 35.5575C92.1803 35.626 91.8071 35.6602 91.4203 35.6602C90.8177 35.6602 90.2915 35.5746 89.8417 35.4035C89.401 35.2238 89.0322 34.98 88.7354 34.672C88.4476 34.3555 88.2317 33.9833 88.0878 33.5555C87.9439 33.1192 87.8719 32.6486 87.8719 32.1439Z" fill="#008208"/>
  <path d="M78.8162 32.1695C78.8162 31.5792 78.9061 31.0616 79.086 30.6167C79.2749 30.1718 79.5222 29.8039 79.828 29.5131C80.1339 29.2136 80.4846 28.9912 80.8804 28.8457C81.2762 28.6917 81.6809 28.6147 82.0947 28.6147C83.0661 28.6147 83.8216 28.9013 84.3613 29.4746C84.91 30.0478 85.1843 30.9033 85.1843 32.0412C85.1843 32.1268 85.1798 32.2251 85.1708 32.3364C85.1708 32.439 85.1663 32.5331 85.1573 32.6187H80.5026C80.5476 33.1577 80.7455 33.5769 81.0963 33.8764C81.4561 34.1672 81.9732 34.3127 82.6478 34.3127C83.0436 34.3127 83.4034 34.2785 83.7272 34.21C84.06 34.1416 84.3208 34.0689 84.5097 33.9919L84.7256 35.2623C84.6356 35.3051 84.5097 35.3522 84.3478 35.4035C84.1949 35.4463 84.015 35.4848 83.8081 35.519C83.6102 35.5618 83.3944 35.596 83.1605 35.6217C82.9267 35.6473 82.6883 35.6602 82.4455 35.6602C81.8248 35.6602 81.2852 35.5746 80.8264 35.4035C80.3677 35.2238 79.9899 34.98 79.6931 34.672C79.3963 34.3555 79.1759 33.9876 79.032 33.5684C78.8881 33.1406 78.8162 32.6743 78.8162 32.1695ZM83.5518 31.4765C83.5518 31.2627 83.5203 31.0616 83.4573 30.8734C83.3944 30.6766 83.2999 30.5098 83.174 30.3729C83.0571 30.2274 82.9087 30.1162 82.7288 30.0392C82.5579 29.9537 82.351 29.9109 82.1082 29.9109C81.8563 29.9109 81.6359 29.9579 81.4471 30.0521C81.2582 30.1376 81.0963 30.2531 80.9614 30.3986C80.8354 30.544 80.7365 30.7108 80.6645 30.899C80.5926 31.0873 80.5431 31.2798 80.5161 31.4765H83.5518Z" fill="#008208"/>
  <path d="M77.3797 26.6V27.9988H74.5059V35.4934H72.7925V27.9988H69.9187V26.6H77.3797Z" fill="#008208"/>
</svg>